<svg width="47" height="47" viewBox="0 0 47 47" fill="none" xmlns="http://www.w3.org/2000/svg">
<path d="M1 21.9239C1.11141 21.0772 1.17826 20.2082 1.34538 19.3726C3.01659 10.8048 7.86308 4.88877 16.1968 2.14799C27.0374 -1.41725 38.6244 3.5518 43.6826 13.7684C47.8829 22.247 46.2674 32.7756 39.6383 39.5273C36.7972 42.4129 33.3323 44.3069 29.3882 45.2651C28.107 45.5771 26.77 45.6996 25.4553 45.9113C25.355 45.9224 25.2659 45.9559 25.1656 45.9893C24.252 45.9893 23.3496 45.9893 22.436 45.9893C21.5113 45.8667 20.5754 45.7776 19.6618 45.6105C10.4033 43.995 2.96088 36.508 1.35652 27.2049C1.20054 26.3248 1.11141 25.4446 1 24.5644C1 23.6843 1 22.8041 1 21.9239ZM23.4944 44.7526C35.2374 44.7415 44.7633 35.2044 44.7633 23.4837C44.741 11.763 35.2263 2.23712 23.5279 2.23712C11.7849 2.23712 2.24783 11.7407 2.23669 23.4726C2.23669 35.2044 11.7849 44.7637 23.4944 44.7526Z" fill="white" stroke="white"/>
<path d="M28.4694 33.7273C27.2472 33.7358 26.3369 33.4383 25.4435 33.1069C22.2489 31.9 19.6275 29.8772 17.3854 27.3189C15.7839 25.4831 14.5027 23.4518 13.6851 21.14C12.8422 18.7517 13.289 16.6439 15.0085 14.8081C15.3035 14.4936 15.6154 14.1877 15.9272 13.8817C16.7617 13.0743 17.8912 13.0658 18.7172 13.8817C19.7624 14.9186 20.7907 15.9555 21.819 17.0094C22.6451 17.8508 22.6282 18.9642 21.8022 19.8141C21.2543 20.3836 20.6896 20.936 20.1332 21.497C19.7877 21.8454 19.7877 21.9729 20.0742 22.3554C21.3976 24.1147 22.9148 25.6616 24.6933 26.945C25.1569 27.2764 25.2327 27.2764 25.6457 26.86C26.1599 26.3415 26.6741 25.8146 27.1967 25.2961C28.0733 24.4207 29.169 24.4207 30.0456 25.2961C31.0571 26.3075 32.077 27.3274 33.08 28.3473C33.9398 29.2227 33.9398 30.3191 33.0885 31.1946C32.3383 31.968 31.5881 32.7499 30.5851 33.2004C29.8349 33.5318 29.0426 33.7103 28.4694 33.7273ZM28.0986 32.5544C28.9414 32.5544 29.5989 32.3929 30.2311 32.0955C31.0571 31.7045 31.6471 31.0331 32.2709 30.4041C32.6755 29.9962 32.6839 29.6052 32.2709 29.1802C31.2678 28.1603 30.2564 27.1404 29.2449 26.1205C28.8066 25.6871 28.4189 25.6871 27.9806 26.1375C27.4495 26.673 26.9269 27.2254 26.3959 27.7609C25.6963 28.4663 24.9293 28.5258 24.1285 27.9479C22.2152 26.5625 20.5547 24.9222 19.1471 23.0183C18.5402 22.2024 18.5908 21.446 19.3072 20.7151C19.8719 20.1456 20.4367 19.5847 20.993 19.0067C21.3807 18.6073 21.3976 18.2163 21.0267 17.8338C19.99 16.7714 18.9532 15.726 17.8996 14.6806C17.5287 14.3152 17.1326 14.3237 16.7533 14.6976C16.3402 15.1056 15.9188 15.5051 15.5479 15.947C14.5365 17.1369 14.1909 18.5223 14.5702 20.0436C14.9495 21.565 15.6491 22.9418 16.5088 24.2422C18.8605 27.7609 21.8949 30.4721 25.8565 32.0275C26.6235 32.308 27.399 32.5884 28.0986 32.5544Z" fill="white" stroke="white"/>
</svg>
