<svg width="47" height="47" viewBox="0 0 47 47" fill="none" xmlns="http://www.w3.org/2000/svg">
<path d="M1 21.9249C1.11141 21.0782 1.17826 20.2091 1.34538 19.3735C3.01659 10.8058 7.86308 4.88974 16.1968 2.14897C27.0374 -1.41627 38.6244 3.55278 43.6826 13.7694C47.8829 22.248 46.2674 32.7766 39.6383 39.5283C36.7972 42.4139 33.3323 44.3079 29.3882 45.2661C28.107 45.578 26.77 45.7006 25.4553 45.9123C25.355 45.9234 25.2659 45.9568 25.1656 45.9903C24.252 45.9903 23.3496 45.9903 22.436 45.9903C21.5113 45.8677 20.5754 45.7786 19.6618 45.6115C10.4033 43.996 2.96088 36.509 1.35652 27.2059C1.20054 26.3257 1.11141 25.4456 1 24.5654C1 23.6852 1 22.8051 1 21.9249ZM23.4944 44.7536C35.2374 44.7424 44.7633 35.2054 44.7633 23.4847C44.741 11.764 35.2263 2.2381 23.5279 2.2381C11.7849 2.2381 2.24783 11.7417 2.23669 23.4736C2.23669 35.2054 11.7849 44.7647 23.4944 44.7536Z" fill="white" stroke="white"/>
<path d="M23.3209 35.2248C22.9058 35.1038 22.6317 34.8239 22.3968 34.4836C20.533 31.738 18.6536 28.9999 16.782 26.2619C15.9754 25.082 15.3959 23.8037 15.1218 22.4044C14.8947 21.2245 14.9965 20.0673 15.3332 18.9252C15.8422 17.2385 16.8211 15.8468 18.2464 14.75C19.3114 13.9483 20.5017 13.3961 21.8251 13.1617C24.7618 12.6398 27.3382 13.381 29.4839 15.3929C30.8386 16.6561 31.6296 18.2293 31.9115 20.0295C32.2091 21.9431 31.7392 23.7205 30.7603 25.3618C30.0007 26.6401 29.1236 27.8503 28.2857 29.0831C27.0641 30.8833 25.8268 32.6834 24.6051 34.4836C24.3702 34.8239 24.104 35.1038 23.6811 35.2248C23.5636 35.2248 23.4383 35.2248 23.3209 35.2248ZM23.501 34.3021C23.5949 34.181 23.6654 34.0978 23.7202 34.0146C24.7774 32.4717 25.8346 30.9287 26.884 29.3781C27.8785 27.9108 28.8887 26.4434 29.8441 24.9534C30.4784 23.9625 30.8543 22.8658 30.9561 21.7086C31.1205 19.7874 30.5411 18.0629 29.2646 16.5956C27.487 14.5685 25.1925 13.7214 22.4594 14.039C21.2456 14.1827 20.1493 14.6214 19.1548 15.3022C17.8235 16.2325 16.8838 17.4578 16.3748 18.963C16.0458 19.9311 15.9206 20.922 16.0615 21.9355C16.2573 23.3196 16.829 24.5601 17.6121 25.7098C19.5072 28.4932 21.4023 31.2615 23.3052 34.0373C23.3522 34.1205 23.4148 34.1962 23.501 34.3021Z" fill="black" stroke="white"/>
<path d="M23.5009 25.551C21.0185 25.551 18.9981 23.5996 19.0059 21.2019C19.0137 18.8042 21.0419 16.8528 23.5165 16.8604C25.9911 16.8679 28.0037 18.8194 28.0037 21.2019C28.0037 23.6071 25.9833 25.551 23.5009 25.551ZM23.5009 17.821C21.5745 17.821 19.9926 19.3564 20.0004 21.2095C20.0083 23.0626 21.5745 24.5753 23.4931 24.5829C25.4195 24.5904 27.0013 23.0701 27.0092 21.2095C27.0092 19.3564 25.4195 17.821 23.5009 17.821Z" fill="black" stroke="white"/>
</svg>
