<svg width="47" height="47" viewBox="0 0 47 47" fill="none" xmlns="http://www.w3.org/2000/svg">
<path d="M1 21.9249C1.11141 21.0782 1.17826 20.2091 1.34538 19.3735C3.01659 10.8058 7.86308 4.88974 16.1968 2.14897C27.0374 -1.41627 38.6244 3.55278 43.6826 13.7694C47.8829 22.248 46.2674 32.7766 39.6383 39.5283C36.7972 42.4139 33.3323 44.3079 29.3882 45.2661C28.107 45.578 26.77 45.7006 25.4553 45.9123C25.355 45.9234 25.2659 45.9568 25.1656 45.9903C24.252 45.9903 23.3496 45.9903 22.436 45.9903C21.5113 45.8677 20.5754 45.7786 19.6618 45.6115C10.4033 43.996 2.96088 36.509 1.35652 27.2059C1.20054 26.3257 1.11141 25.4456 1 24.5654C1 23.6852 1 22.8051 1 21.9249ZM23.4944 44.7536C35.2374 44.7424 44.7633 35.2054 44.7633 23.4847C44.741 11.764 35.2263 2.2381 23.5279 2.2381C11.7849 2.2381 2.24783 11.7417 2.23669 23.4736C2.23669 35.2054 11.7849 44.7647 23.4944 44.7536Z" fill="white" stroke="white"/>
<path d="M23.5044 32.9961C20.3303 32.9961 17.1649 32.9961 13.9908 32.9961C13.1929 32.9961 13 32.7919 13 31.9932C13 26.9964 13 22.0085 13 17.0118C13 16.2041 13.1929 16 13.9908 16C20.3303 16 26.6697 16 33.0092 16C33.7983 16 34 16.2041 34 17.0029C34 21.9997 34 26.9875 34 31.9843C34 32.7919 33.8071 32.9961 33.0092 32.9961C29.8438 33.0049 26.6785 32.9961 23.5044 32.9961ZM14.4117 31.5494C20.4969 31.5494 26.5382 31.5494 32.5795 31.5494C32.5795 27.1295 32.5795 22.7363 32.5795 18.2809C32.3516 18.4762 32.1762 18.6182 32.0096 18.7691C29.3879 21.05 26.7574 23.3221 24.1357 25.603C23.6271 26.0379 23.3904 26.0379 22.8906 25.5941C20.2251 23.2777 17.5595 20.9701 14.8852 18.6537C14.7449 18.5383 14.6046 18.4229 14.4205 18.2632C14.4117 22.7452 14.4117 27.1295 14.4117 31.5494ZM31.3783 17.4555C26.0823 17.4555 20.9177 17.4555 15.6392 17.4555C18.3048 19.772 20.9002 22.0263 23.5044 24.2806C26.1261 22.0085 28.7127 19.7631 31.3783 17.4555Z" fill="white" stroke="white"/>
</svg>
