<svg width="110" height="110" viewBox="0 0 110 110" fill="none" xmlns="http://www.w3.org/2000/svg">
<circle cx="55" cy="55" r="55" fill="#E20001"/>
<g clip-path="url(#clip0_386_1033)">
<path d="M32.6777 29.9701L32.3324 30.3297L32.2967 33.9256L32.261 37.5095H28.8916C26.7962 37.5095 25.3794 37.5574 25.1532 37.6413C24.6651 37.8091 24.415 38.2286 24.415 38.8399C24.415 39.3314 24.4627 39.4033 26.2485 41.2132L28.082 43.083L27.2248 44.821C26.3676 46.559 25.5818 48.7165 25.1413 50.5145C24.6293 52.6001 24.5103 53.6069 24.4508 56.3877C24.3912 58.785 24.415 59.3723 24.6413 60.8825C24.7722 61.8414 25.0461 63.2558 25.2485 64.0229C27.6653 73.516 35.3565 81.2591 44.7503 83.6563C47.9887 84.4834 46.6552 84.4234 65.2522 84.4714C84.1944 84.5073 82.7062 84.5792 83.5753 83.5844C83.8373 83.2727 84.0873 82.8293 84.1706 82.5176C84.254 82.17 84.3016 79.8687 84.3016 75.4458V68.9013L84.6111 68.4938C84.7778 68.266 85.0159 67.8106 85.1469 67.4749C85.3493 66.9236 85.3731 66.528 85.3731 62.4527V58.0418L85.0636 57.7182L84.7421 57.4065H80.0036H75.2531V55.9202C75.2531 54.3021 75.1698 53.9305 74.6816 53.4151C74.1816 52.8758 73.9554 52.8038 72.7053 52.7319L71.5266 52.672L71.217 51.5333C69.1692 44.1738 63.2877 38.6601 55.7275 37.03C54.1321 36.6824 50.858 36.5745 49.0364 36.7903C47.9053 36.9341 47.7863 36.9701 47.4291 37.3297C46.8219 37.941 46.9291 38.8759 47.6434 39.2594C47.9887 39.4272 48.1554 39.4392 49.2864 39.3074C51.0009 39.1036 54.025 39.2115 55.3822 39.5351C61.7042 41.0094 66.6214 45.4683 68.5858 51.5333C68.7763 52.1326 68.943 52.66 68.943 52.684C68.943 52.708 67.3595 52.7319 65.4308 52.7319C62.1567 52.7319 61.8709 52.7439 61.4423 52.9716C60.5375 53.4391 60.2517 54.1823 60.2517 56.112V57.4065H55.5489H50.8342L50.5484 57.6942C50.3937 57.85 50.227 58.1617 50.1913 58.3774C50.0603 59.1086 50.1913 66.8996 50.346 67.3791C50.4294 67.6188 50.6794 68.0862 50.9056 68.4219L51.3223 69.0331V71.9698V74.9064H50.6318C48.9769 74.9064 45.7266 74.0673 44.0002 73.2043C38.6783 70.5314 35.1184 65.7369 34.1302 59.9356C33.8921 58.4973 33.8802 55.6805 34.1183 54.1942C34.2731 53.2353 34.2731 53.0316 34.1302 52.684C33.9278 52.1806 33.6302 52.0128 32.9873 52.0128C32.6063 52.0128 32.4158 52.0847 32.1539 52.3484C31.6419 52.8638 31.499 53.9545 31.499 57.1668C31.5109 59.5161 31.5467 60.0315 31.7729 61.1223C33.6302 69.7164 40.2022 75.9372 48.7983 77.2437C49.4293 77.3396 50.2627 77.4235 50.6437 77.4235H51.3223V79.7009V81.9782H50.5603C47.0362 81.9782 42.0834 80.42 38.5949 78.2266C32.3801 74.3191 28.1297 67.7386 27.0939 60.4031C26.8676 58.761 26.8676 55.5247 27.0939 53.7507C27.4391 51.1497 28.3678 48.1053 29.5584 45.744L29.9632 44.9289L32.0467 47.0744C33.6897 48.7645 34.2136 49.232 34.5231 49.2919C34.7374 49.3398 36.5948 49.3758 38.6426 49.3758H42.3572L45.9171 52.9956C47.8577 54.9973 49.596 56.7233 49.7626 56.8312C50.2508 57.1668 50.8699 57.1069 51.3104 56.6994C51.62 56.3997 51.6795 56.2679 51.6795 55.7764V55.2011L47.8696 51.3535L44.0597 47.5059V43.8382C44.0597 41.8245 44.024 39.9906 43.9764 39.7748C43.9169 39.4512 43.4525 38.9118 41.8214 37.2458L39.7498 35.1242L40.4999 34.7407C42.7977 33.578 45.8456 32.6311 48.4054 32.2955C50.0008 32.0917 53.0725 32.0557 54.5369 32.2355C58.9659 32.7869 63.502 34.6807 66.9547 37.4016C69.705 39.5711 72.2052 42.6276 73.8125 45.7799C74.1578 46.4392 74.5269 47.0265 74.6578 47.0984C74.7769 47.1583 75.0984 47.2183 75.3722 47.2183C75.7651 47.2183 75.9437 47.1464 76.2175 46.8707C76.7414 46.3313 76.6818 45.8878 75.896 44.3296C73.3125 39.2355 68.9906 34.9924 63.764 32.4153C61.1804 31.1328 58.9778 30.4136 56.0251 29.8862C54.2988 29.5626 49.1674 29.5626 47.3934 29.8743C44.4883 30.3897 42.0238 31.1927 39.5593 32.4153C38.1187 33.1345 37.833 33.2424 37.7139 33.0985C37.6425 33.0027 36.7852 32.1756 35.8209 31.2647C34.1183 29.6465 34.0588 29.5986 33.5468 29.5986C33.1301 29.5986 32.9635 29.6705 32.6777 29.9701ZM41.5595 42.7834V45.0008L38.1663 41.5848L34.7732 38.1687V36.0352V33.8896L38.1663 37.2218L41.5476 40.5659L41.5595 42.7834ZM36.44 43.4426L39.8331 46.8587H37.6306H35.428L32.0348 43.4426L28.6416 40.0266H30.8442H33.0468L36.44 43.4426ZM72.7529 56.3278V57.4065H67.7524H62.752V56.3278V55.249H67.7524H72.7529V56.3278ZM82.9681 63.064C82.9324 66.1085 82.9205 66.3602 82.6824 66.7558C82.5514 66.9835 82.2657 67.2951 82.0395 67.439C81.6466 67.7147 81.6347 67.7147 76.5628 67.7147H71.479L71.4075 66.9356C71.3242 66.1085 71.1813 65.7849 70.7051 65.4613C70.336 65.1856 65.9308 65.0897 65.2046 65.3414C64.5378 65.5691 64.264 66.0006 64.2045 66.9356L64.1569 67.7147H59.0135C54.1321 67.7147 53.8583 67.7027 53.5011 67.4749C53.2868 67.3551 53.013 67.0315 52.8701 66.7678C52.6439 66.3123 52.632 66.0726 52.632 63.0401V59.8038H67.8239H83.0039L82.9681 63.064ZM68.943 68.7335C68.943 70.016 68.7525 70.5314 68.181 70.7711C67.681 70.9869 67.3 70.879 66.9309 70.3996C66.7166 70.1239 66.6809 69.9201 66.6809 68.9013V67.7147H67.812H68.943V68.7335ZM64.3354 70.8191C64.7879 72.3773 66.1809 73.4081 67.8001 73.3961C68.8001 73.3841 69.5145 73.1085 70.2289 72.4492C70.7527 71.9818 71.3242 70.9629 71.3242 70.5074V70.2318H76.5628H81.8014V73.2283V76.2249H78.0034C75.9199 76.2249 74.0506 76.2608 73.8363 76.2968C72.8481 76.5005 72.4791 77.7112 73.1934 78.4423L73.503 78.742H77.6462H81.8014V80.3002C81.8014 81.7145 81.7775 81.8584 81.5751 81.9782C81.3132 82.1101 57.4777 82.158 55.1679 82.0142L53.8226 81.9423V76.081V70.2318H58.9897H64.1569L64.3354 70.8191Z" fill="white"/>
<path d="M67.9074 76.3207C67.324 76.4166 66.8834 77.1718 67.0144 77.843C67.1811 78.742 68.3955 79.0656 69.0741 78.3944C69.9194 77.5314 69.1337 76.117 67.9074 76.3207Z" fill="white"/>
<path d="M49.0605 45.0488C47.0246 45.5043 46.6079 45.8279 46.6674 46.9546C46.6674 47.1104 46.846 47.3981 47.0365 47.6019C47.3461 47.9135 47.4651 47.9495 47.9056 47.9135C48.1795 47.8775 48.751 47.7577 49.1796 47.6258C50.2511 47.3142 53.0609 47.3022 54.18 47.6138C55.192 47.8895 56.7041 48.6447 57.4542 49.2559C58.4662 50.071 58.74 50.2148 59.2519 50.2148C60.0377 50.2148 60.5259 49.5676 60.3949 48.6926C60.3116 48.1053 58.5852 46.7628 56.8708 45.9478C55.1563 45.1327 54.2158 44.9289 51.9775 44.869C50.4297 44.833 49.882 44.869 49.0605 45.0488Z" fill="white"/>
<path d="M76.42 49.6754C76.051 49.8792 75.7295 50.4186 75.7295 50.8141C75.7295 51.1617 76.051 51.7371 76.3129 51.8929C76.4438 51.9528 76.7653 52.0128 77.0391 52.0128C78.1107 52.0128 78.6345 50.7902 77.9083 49.9751C77.5035 49.5316 76.8963 49.4118 76.42 49.6754Z" fill="white"/>
<path d="M40.7025 52.4443C40.2977 52.66 40.1072 53.0196 39.8215 54.1103C39.6429 54.7936 39.5953 55.3569 39.6072 57.1069C39.6072 59.624 39.7858 60.451 40.6787 62.3089C41.6312 64.3106 43.0123 65.9527 44.7505 67.1513C45.7387 67.8345 46.3697 67.9064 46.8579 67.427C47.5603 66.7198 47.3817 65.9527 46.3221 65.1616C44.691 63.951 43.5838 62.6445 42.8694 61.0863C42.3098 59.8997 42.1312 59.0247 42.0717 57.3346C42.0241 56.0042 42.0479 55.6206 42.2622 54.7696C42.3932 54.2182 42.5122 53.6309 42.5122 53.4751C42.5122 53.0436 42.155 52.5162 41.7622 52.3723C41.2978 52.2165 41.0954 52.2285 40.7025 52.4443Z" fill="white"/>
</g>
<defs>
<clipPath id="clip0_386_1033">
<rect width="60" height="59" fill="white" transform="translate(24 26)"/>
</clipPath>
</defs>
</svg>
