<svg width="110" height="110" viewBox="0 0 110 110" fill="none" xmlns="http://www.w3.org/2000/svg">
<circle cx="55" cy="55" r="55" fill="#E20001"/>
<path d="M50.2912 30.7045C48.1447 31.4051 46.4888 33.1317 45.8265 35.3336C45.4463 36.6097 45.4708 38.3737 45.8878 39.6373C46.0595 40.1628 46.2558 40.6507 46.3171 40.7258C46.8691 41.2888 45.4217 40.6257 44.0357 39.6624C43.5696 39.3246 41.5458 37.6481 39.5588 35.9091C35.4498 32.3184 35.0818 32.0933 33.8062 32.1808C32.506 32.2809 31.672 32.8439 31.0955 34.0199C30.7643 34.6955 30.7275 35.9842 31.0341 36.7098C31.1813 37.0476 33.242 39.262 37.9152 44.0912L44.5877 50.9848V53.1992V55.4261H45.5689H46.5502V52.6487V49.8713L39.8163 42.9778C36.0999 39.1995 33.0089 35.9341 32.9476 35.7464C32.7881 35.3211 33.0334 34.6205 33.4014 34.4203C34.0883 34.045 34.2109 34.12 38.1482 37.5355C40.2088 39.3121 42.2327 41.0261 42.662 41.3388C44.2933 42.5274 46.3048 43.4532 48.5004 44.0162C49.7147 44.3289 49.9845 44.354 52.4377 44.354C54.8908 44.354 55.1606 44.3289 56.3749 44.0162C58.5827 43.4407 60.582 42.5274 62.2379 41.3263C62.6549 41.0135 64.691 39.2995 66.7516 37.523C70.6031 34.1826 70.738 34.0825 71.3635 34.4328C71.7806 34.658 71.9277 34.9332 71.94 35.4712C71.94 35.9591 71.8541 36.0467 65.1326 42.9152L58.3252 49.8713V52.6487V55.4261H59.3064H60.2877V53.1992V50.9848L66.9479 44.1037C74.2214 36.5847 74.0497 36.7974 74.0497 35.3336C74.0374 33.5695 72.8477 32.3184 71.0691 32.1808C69.7935 32.0933 69.4256 32.331 65.3779 35.8465C63.4277 37.5605 61.5265 39.1744 61.1585 39.4497C60.3122 40.0877 58.3865 41.1387 58.4846 40.9009C59.2206 39.1619 59.2328 39.1119 59.2819 37.6606C59.3309 36.3595 59.2941 36.1218 59.012 35.2335C58.2638 32.994 56.7797 31.4677 54.6087 30.717C53.3453 30.2917 51.5545 30.2792 50.2912 30.7045ZM54.437 32.9315C55.3446 33.3694 56.3995 34.4453 56.8288 35.3711C57.1231 36.0217 57.1599 36.2469 57.1599 37.4104C57.1599 38.5739 57.1231 38.8116 56.8288 39.4372C55.1116 43.1905 49.8987 43.2655 48.1079 39.5498C47.7399 38.7866 47.7154 38.649 47.7154 37.4104C47.7154 36.2469 47.7522 36.0092 48.0343 35.3961C48.5863 34.1951 49.4571 33.3569 50.7082 32.8189C51.297 32.5687 51.5545 32.5311 52.5603 32.5687C53.5048 32.5937 53.8605 32.6688 54.437 32.9315Z" fill="white"/>
<path d="M31.6473 53.7247C28.7403 54.6755 26.925 57.2653 26.925 60.4555C26.925 62.2446 27.3298 63.4081 28.5809 65.1471C28.7771 65.4099 28.7648 65.4224 28.0657 65.6226C26.2504 66.1605 24.6191 67.4742 23.8218 69.038C23.0613 70.5143 23 70.9147 23 74.0925V76.9575L23.3066 77.2702C24.018 77.9959 26.4466 78.8216 29.0102 79.2219C30.5066 79.4597 37.5593 79.4221 38.884 79.1844C40.0002 78.9717 39.9634 79.0343 39.669 77.5955L39.5341 76.9199L38.9698 76.995C37.1545 77.2577 36.1733 77.3203 33.8551 77.3328C29.832 77.3328 27.1335 76.9199 25.4286 76.0442L24.9625 75.819V74.2801C24.9748 71.3651 25.3059 70.2016 26.4834 68.988C27.293 68.1748 28.1516 67.7369 29.3168 67.5618C30.3962 67.4116 37.2649 67.3991 38.3198 67.5618C39.3869 67.7119 40.503 68.2999 41.2022 69.0631C41.5211 69.4009 41.8155 69.6886 41.8523 69.6886C41.9995 69.6886 43.4836 68.6627 43.4836 68.5626C43.4836 68.375 42.6373 67.3991 42.1221 66.9737C41.3003 66.3107 40.687 65.9854 39.718 65.6851C39.2274 65.535 38.8227 65.3849 38.8227 65.3473C38.8227 65.3098 38.9944 65.0846 39.1906 64.8469C39.6445 64.3214 40.2087 63.2205 40.4662 62.3197C40.7852 61.2312 40.7361 59.3671 40.3559 58.2161C39.6199 56.0142 38.1235 54.4878 35.9648 53.7372C34.7014 53.3118 32.9106 53.2993 31.6473 53.7247ZM35.793 55.9516C36.7007 56.3895 37.7555 57.4654 38.1848 58.3912C38.4792 59.0418 38.516 59.267 38.516 60.4305C38.516 61.594 38.4792 61.8317 38.1848 62.4573C36.4677 66.2106 31.2548 66.2856 29.464 62.5699C29.096 61.8067 29.0715 61.6691 29.0715 60.4305C29.0715 59.267 29.1083 59.0293 29.3904 58.4163C29.9423 57.2152 30.8132 56.377 32.0643 55.839C32.653 55.5888 32.9106 55.5513 33.9164 55.5888C34.8609 55.6138 35.2166 55.6889 35.793 55.9516Z" fill="white"/>
<path d="M68.935 53.7246C66.028 54.6754 64.2127 57.2652 64.2127 60.4555C64.2127 62.2446 64.6175 63.4081 65.8686 65.1346C66.0648 65.3973 66.0525 65.4098 65.1694 65.6851C64.1882 65.9853 63.5749 66.3106 62.7531 66.9737C62.2379 67.3991 61.3916 68.3749 61.3916 68.5626C61.3916 68.6627 62.8757 69.6886 63.0229 69.6886C63.0597 69.6886 63.3541 69.4008 63.673 69.063C64.3721 68.2998 65.4883 67.7118 66.5554 67.5617C67.6103 67.3991 74.479 67.4116 75.5584 67.5617C76.7236 67.7369 77.5822 68.1747 78.3918 68.9879C79.5693 70.2015 79.9004 71.365 79.9127 74.2801V75.8189L79.4589 76.0566C78.9314 76.3194 77.5945 76.7322 76.601 76.9324C75.1904 77.2076 73.51 77.3327 71.0201 77.3327C68.7019 77.3202 67.7207 77.2577 65.9054 76.9949L65.3411 76.9199L65.2062 77.5955C64.9118 79.0342 64.8873 78.9842 65.9299 79.1719C67.2546 79.4096 73.0807 79.5096 74.7857 79.3345C77.9747 78.9967 80.6854 78.1585 81.5808 77.2577C81.8752 76.9574 81.8752 76.9449 81.8752 74.0924C81.8752 70.9146 81.8139 70.5143 81.0534 69.038C80.2561 67.4741 78.6248 66.1605 76.8218 65.6225C76.4293 65.5099 76.1104 65.3848 76.1104 65.3473C76.1104 65.3097 76.2821 65.0845 76.4783 64.8468C76.9321 64.3214 77.4964 63.2204 77.7539 62.3196C78.0729 61.2312 78.0238 59.367 77.6436 58.216C76.9076 56.0141 75.4112 54.4878 73.2525 53.7371C71.9891 53.3117 70.1983 53.2992 68.935 53.7246ZM73.0807 55.9516C73.9884 56.3894 75.0432 57.4654 75.4725 58.3912C75.7669 59.0418 75.8037 59.267 75.8037 60.4305C75.8037 61.594 75.7669 61.8317 75.4725 62.4572C73.7554 66.2105 68.5425 66.2856 66.7517 62.5698C66.3837 61.8067 66.3592 61.6691 66.3592 60.4305C66.3592 59.267 66.396 59.0292 66.6781 58.4162C67.23 57.2152 68.1009 56.3769 69.352 55.839C69.9407 55.5887 70.1983 55.5512 71.2041 55.5887C72.1486 55.6138 72.5043 55.6888 73.0807 55.9516Z" fill="white"/>
<path d="M50.2908 56.7273C47.3839 57.6781 45.5686 60.2679 45.5686 63.4582C45.5686 65.2472 45.9733 66.4107 47.2244 68.1498C47.4207 68.4125 47.4084 68.425 46.7093 68.6252C44.8939 69.1631 43.2626 70.4768 42.4654 72.0407C41.7049 73.517 41.6436 73.9173 41.6436 77.0951V79.9601L41.9502 80.2729C42.6248 80.961 44.7222 81.7116 47.1631 82.1495C48.7086 82.4247 54.2404 82.5373 56.1538 82.3372C59.3306 81.9994 62.0536 81.1611 62.9367 80.2604C63.2311 79.9601 63.2311 79.9476 63.2311 77.0951C63.2311 73.9173 63.1697 73.517 62.4215 72.0532C61.6243 70.5143 60.226 69.3383 58.4843 68.7378C57.9568 68.5626 57.503 68.3875 57.4785 68.3624C57.4539 68.3374 57.6011 68.1247 57.8219 67.8745C58.288 67.324 58.84 66.2356 59.1098 65.3223C59.4287 64.2338 59.3796 62.3697 58.9994 61.2187C58.2635 59.0168 56.7671 57.4904 54.6083 56.7398C53.345 56.3144 51.5542 56.3019 50.2908 56.7273ZM54.4366 58.9542C55.3443 59.3921 56.3991 60.468 56.8284 61.3939C57.1228 62.0444 57.1596 62.2696 57.1596 63.4331C57.1596 64.5967 57.1228 64.8344 56.8284 65.4599C55.1112 69.2132 49.8983 69.2883 48.1075 65.5725C47.7396 64.8093 47.715 64.6717 47.715 63.4331C47.715 62.2696 47.7518 62.0319 48.0339 61.4189C48.5859 60.2178 49.4568 59.3796 50.7079 58.8416C51.2966 58.5914 51.5542 58.5539 52.56 58.5914C53.5044 58.6164 53.8601 58.6915 54.4366 58.9542ZM56.9143 70.5644C58.0795 70.7395 58.9381 71.1774 59.7476 71.9906C60.9251 73.2042 61.2563 74.3677 61.2686 77.2827V78.8216L60.8147 79.0593C59.5391 79.7224 57.1596 80.1728 54.3875 80.3104C49.9351 80.5106 45.9365 80.0226 44.0721 79.0593L43.6061 78.8216V77.2827C43.6183 74.3677 43.9495 73.2042 45.127 71.9906C45.912 71.2024 46.8196 70.727 47.85 70.5769C48.8803 70.4268 55.8839 70.4142 56.9143 70.5644Z" fill="white"/>
</svg>
