<svg width="110" height="110" viewBox="0 0 110 110" fill="none" xmlns="http://www.w3.org/2000/svg">
<circle cx="55" cy="55" r="55" fill="#E20001"/>
<path d="M33.9204 39.3136C32.9386 39.8326 32.4898 40.5759 32.4056 41.8382L32.3355 42.8901L28.9554 42.9462C25.3369 43.0023 25.1265 43.0303 24.4253 43.7877C23.8923 44.3627 23.8222 44.7975 23.8222 47.869C23.8222 50.5899 23.8502 50.8844 24.1027 51.3052C24.3692 51.74 24.3832 52.0065 24.3832 56.8592V61.9503L23.3734 62.0485C22.1251 62.1747 21.3397 62.5254 20.6665 63.2827C19.9653 64.0541 19.7549 64.6151 19.7549 65.7371C19.7549 67.35 20.4982 68.5141 21.9288 69.1593C22.4618 69.4118 23.2752 69.4258 37.609 69.4258C45.9119 69.4258 52.7142 69.4538 52.7142 69.4819C52.7142 69.524 50.9049 72.2729 48.7029 75.6249L44.6917 81.6978L44.7478 82.6095C44.8039 83.6894 45.1546 84.2925 45.982 84.7133C46.515 84.9797 46.8376 84.9938 55.6595 84.9938C64.4813 84.9938 64.8039 84.9797 65.3369 84.7133C66.1363 84.3065 66.515 83.7035 66.5711 82.6656C66.6131 82.1467 66.557 81.6838 66.4589 81.4875C66.3607 81.3051 64.5514 78.5562 62.4477 75.3584C60.3298 72.1607 58.6047 69.524 58.6047 69.4819C58.6047 69.4538 62.2513 69.4258 66.7113 69.4258H74.8319L75.1265 69.1032C75.5051 68.6965 75.5192 68.0233 75.1685 67.5885L74.9021 67.2519L48.7871 67.1817L22.6721 67.1116L22.3355 66.7189C21.6343 65.9055 22.041 64.6712 23.0929 64.3767C23.4155 64.2926 25.926 64.2365 29.5866 64.2365C35.1826 64.2365 35.5753 64.2224 35.7857 63.984C36.2065 63.5212 36.2345 62.9321 35.8418 62.4693L35.4912 62.0625L31.0873 61.9924L26.6974 61.9223L26.6553 57.883L26.6272 53.8438L27.062 54.1663C27.4828 54.4749 27.609 54.4889 30.8488 54.531L34.2009 54.5731V55.4426C34.2149 56.8732 34.8881 58.0233 36.0943 58.6684C36.529 58.9069 36.9077 58.977 37.7072 58.977C38.5066 58.977 38.8853 58.9069 39.3201 58.6684C40.5262 58.0233 41.1994 56.8732 41.2135 55.4426V54.5731L44.5655 54.531C47.8053 54.4889 47.9316 54.4749 48.3523 54.1663L48.7871 53.8438L48.759 57.883L48.717 61.9223L43.6959 61.9924L38.6609 62.0625L38.3944 62.3991C38.0438 62.8339 38.0438 63.5913 38.4084 63.9559C38.6889 64.2365 38.8713 64.2365 63.205 64.2365C79.5584 64.2365 87.8754 64.2926 88.226 64.3767C89.334 64.6853 89.6987 65.9756 88.9133 66.775L88.5065 67.1817H83.4434C80.0353 67.1817 78.2821 67.2378 78.0577 67.336C77.3985 67.6306 77.2162 68.458 77.6931 69.0611L77.9736 69.4258H83.4013C88.3522 69.4258 88.8852 69.3977 89.3901 69.1593C90.8207 68.5141 91.564 67.35 91.564 65.7371C91.564 64.5871 91.2134 63.7596 90.4139 63.0303C89.5023 62.2168 89.0816 62.1046 86.6973 62.0205L84.5514 61.9503V58.2056V54.4468L85.3088 54.3907C86.8095 54.2645 87.8053 53.1706 87.8333 51.6138C87.8473 51.0247 87.7632 50.6881 87.4967 50.2533C87.104 49.5801 75.7856 39.7624 74.9021 39.3136C74.2008 38.963 72.1952 38.963 71.5641 39.2996C70.9049 39.6643 66.8376 43.1846 66.6272 43.5773C66.2485 44.2786 66.8095 45.1622 67.623 45.1622C68.0297 45.1622 68.4224 44.8816 70.2737 43.2968C71.4659 42.2589 72.5598 41.3753 72.6861 41.3333C73.1489 41.1509 73.6959 41.2351 74.1307 41.5436C74.874 42.0766 85.3368 51.1088 85.5191 51.3753C85.6313 51.5436 85.6313 51.6979 85.5332 51.8943C85.4069 52.1327 85.2386 52.1748 84.2569 52.1748C83.191 52.1748 83.1068 52.2028 82.7141 52.5815L82.3074 52.9882V57.4903V61.9924H79.9231H77.5388V59.8466C77.5388 57.1677 77.3845 56.5506 76.4168 55.4987C75.5051 54.5029 74.5935 54.0822 73.2471 54.0822C71.55 54.0682 70.1756 54.9237 69.32 56.5226C69.0956 56.9433 69.0535 57.3921 69.0115 59.4959L68.9554 61.9924H66.5991H64.2289L64.1868 57.4202L64.1447 52.848L63.752 52.5114C63.4014 52.2168 63.219 52.1748 62.2653 52.1748C61.0592 52.1748 60.6945 51.9924 60.9329 51.4735C61.0031 51.3332 62.0269 50.3795 63.205 49.3697C64.3831 48.3599 65.407 47.3641 65.4911 47.1818C65.7716 46.4104 65.2527 45.7232 64.3972 45.7232C64.0045 45.7232 63.5697 46.0317 61.5641 47.7568C60.0073 49.1032 59.1097 49.9728 58.9554 50.3094C58.0437 52.2309 59.306 54.4188 61.3397 54.4188H61.9708V58.2056V61.9924H56.501H51.0311V56.9013C51.0311 52.0906 51.0452 51.7821 51.3116 51.2631C51.5641 50.7722 51.5921 50.4356 51.5921 47.8129C51.5921 44.7975 51.522 44.3627 50.9891 43.7877C50.2878 43.0303 50.0774 43.0023 46.4589 42.9462L43.0648 42.8901L43.0087 41.9644C42.9526 40.7863 42.5739 40.0429 41.7885 39.4819L41.1854 39.0612L37.8755 39.0191C34.6076 38.977 34.5375 38.977 33.9204 39.3136ZM40.6525 41.5016C40.7226 41.6558 40.7927 42.0345 40.7927 42.3431V42.9181H37.7072H34.6216V42.3431C34.6216 41.207 34.5515 41.2351 37.7072 41.2351C40.3299 41.2351 40.5122 41.2491 40.6525 41.5016ZM49.1237 45.2463C49.32 45.3164 49.3481 45.6811 49.3481 47.7568V50.1832L48.198 51.2491L47.0339 52.315H37.7072H28.3804L27.2163 51.2491L26.0662 50.1832V47.7568C26.0662 45.9476 26.1083 45.3024 26.2486 45.2603C26.501 45.1481 48.8572 45.1481 49.1237 45.2463ZM38.9694 55.2463C38.9694 56.214 38.5347 56.733 37.7072 56.733C36.8797 56.733 36.4449 56.214 36.4449 55.2463V54.559H37.7072H38.9694V55.2463ZM74.313 56.6488C74.5093 56.7891 74.8039 57.1116 74.9862 57.3641C75.2667 57.7989 75.2948 57.9812 75.2948 59.9027V61.9924H73.2471H71.2134L71.2555 59.7764C71.2976 57.2799 71.3817 57.0555 72.4196 56.5226C73.0648 56.186 73.738 56.2421 74.313 56.6488ZM60.0634 75.8914C62.3635 79.3697 64.285 82.329 64.313 82.4833C64.3831 82.7497 64.2148 82.7497 55.6595 82.7497C47.2303 82.7497 46.9358 82.7357 47.0059 82.4833C47.1321 81.9784 55.4491 69.566 55.6595 69.566C55.7857 69.566 57.637 72.2308 60.0634 75.8914Z" fill="white"/>
</svg>
