<svg width="110" height="110" viewBox="0 0 110 110" fill="none" xmlns="http://www.w3.org/2000/svg">
<circle cx="55" cy="55" r="55" fill="#E20001"/>
<path d="M48.1094 36.7625C47.1953 37.2125 44.8891 39.5469 44.1859 40.7563C43.4266 42.0641 42.7937 43.7938 42.6531 45.0594C42.4562 46.6484 42.7797 47.3516 43.75 47.5063L44.2844 47.5906L44.3406 50.0797C44.4109 52.1188 44.4672 52.7234 44.7344 53.5391C45.1844 54.9594 46.0422 56.5344 46.8578 57.4484L47.575 58.25H43.6094H39.6437L39.25 57.8563C38.6312 57.2375 38.5469 56.6469 38.5469 52.9766C38.5469 49.9953 38.5187 49.5734 38.2937 49.3063C37.9703 48.8984 37.5344 48.6875 36.9859 48.6875H36.5219L37.1547 48.2938C37.4922 48.0688 38.0406 47.5906 38.3781 47.2109C41.0219 44.2016 40.0797 39.5328 36.4797 37.8172C35.5234 37.3672 35.5234 37.3672 32.8938 37.325C31.2766 37.2828 29.9688 37.3391 29.5187 37.4234C27.1141 37.9438 25.2297 40.025 24.9062 42.5281C24.8359 43.0906 24.7656 44.7359 24.7656 46.1844C24.7656 48.7578 24.7516 48.8281 24.4141 49.3344L24.0625 49.8547V54.0875C24.0625 60.2047 24.3016 61.6953 25.6797 64.5078C27.2687 67.7422 29.575 70.0063 32.8375 71.5531C34.0891 72.1297 34.9187 72.3828 37.7453 73.0156L39.1094 73.325V77.15V80.9891L39.475 81.3688C39.7703 81.6641 39.9812 81.7344 40.5156 81.7344C41.2891 81.7344 41.8375 81.3125 41.9781 80.5953C42.1187 79.8641 42.0766 72.2844 41.9219 71.7359C41.8375 71.4547 41.6547 71.1172 41.5141 70.9906C41.3453 70.8359 40.1781 70.5125 38.4484 70.1188C35.1297 69.3875 34.1172 69.0219 32.5 67.9391C29.9969 66.2656 28.2531 63.8188 27.4234 60.8375C27.1562 59.8531 27.1141 59.2766 27.0578 55.6766L26.9875 51.6406H31.2906H35.5938V54.0875C35.5938 55.4234 35.6641 56.8719 35.7344 57.2797C35.9453 58.3766 36.5359 59.4453 37.3094 60.1484C38.4203 61.1469 38.7437 61.2031 43.1875 61.2031H47.0828L47.2516 61.7938C47.9547 64.1562 49.9234 66.125 52.3422 66.8984C53.6641 67.3203 55.8297 67.3766 57.1094 67.0391C59.6688 66.3641 61.8766 64.2547 62.6078 61.7938L62.7766 61.2031H66.6016C70.8906 61.2031 71.3828 61.1328 72.4797 60.2891C72.9016 59.9656 73.2531 59.5156 73.5484 58.9391L73.9844 58.0672V54.8469V51.6406H78.4984H83.0125L82.9422 55.6063C82.8719 59.8531 82.7875 60.4578 82.0562 62.3281C80.8891 65.3094 78.1328 68.0375 75.1797 69.1484C74.6312 69.3594 73.2109 69.7391 72.0156 70.0063C70.2859 70.4 69.7656 70.5688 69.4844 70.85L69.1328 71.1875L69.0906 75.8563C69.0484 80.7641 69.0906 81.1156 69.6812 81.5234C69.8359 81.6359 70.2437 81.7344 70.5812 81.7344C71.0734 81.7344 71.2703 81.65 71.6078 81.3266L72.0156 80.9188V76.9672V73.0297L72.8312 72.875C78.4 71.7922 82.3094 68.8672 84.5312 64.1281C85.6984 61.625 85.9375 59.9375 85.9375 54.1016C85.9375 50.1219 85.9234 49.8547 85.6562 49.4188C85.5016 49.1656 85.2766 48.9266 85.1641 48.8844C84.9812 48.8141 84.9531 48.3078 84.9531 45.5938C84.9531 42.7953 84.9109 42.275 84.6719 41.5016C84.1937 39.9266 83.0828 38.6047 81.6484 37.8875C80.6219 37.3813 79.6937 37.2688 76.9234 37.3109L74.3219 37.3672L73.2672 37.8875C71.9594 38.5344 71.0453 39.4625 70.4266 40.7844C70.0047 41.6703 69.9766 41.825 69.9766 43.2734C69.9766 44.75 70.0047 44.8766 70.4547 45.8047C70.9891 46.8734 71.9453 47.9422 72.8031 48.3922L73.3516 48.6734L72.8172 48.6875C72.5219 48.6875 72.1 48.7859 71.875 48.8984C71.0734 49.3063 71.0312 49.5734 71.0312 53.7078C71.0172 56.45 70.975 57.5328 70.8484 57.7016C70.4547 58.2078 70.1312 58.25 66.1656 58.25H62.2703L62.8609 57.6172C64.7875 55.5359 65.5328 53.2156 65.5469 49.3766V47.5906L65.9688 47.5063C66.2078 47.4641 66.5594 47.2531 66.7562 47.0422C67.1078 46.6625 67.1219 46.6063 67.0516 45.3828C66.9109 42.9641 65.8563 40.6016 64.1125 38.7594C62.3828 36.9453 61.3703 36.3547 60.4281 36.6078C59.8094 36.7766 59.5 37.2688 59.5 38.0563C59.5 38.6328 59.5562 38.7313 60.0906 39.1531C61.2859 40.1094 62.3266 41.1641 62.8328 41.9234C63.3391 42.6828 64.0703 44.4406 63.9437 44.5672C63.7609 44.75 62.2562 44.2438 61.3 43.6953C60.6672 43.3297 60.0344 43.0625 59.7953 43.0625C59.5562 43.0625 58.8812 43.3156 58.2766 43.625C56.4062 44.5672 56.1109 44.6094 50.5984 44.6094H45.7047L45.8031 44.2859C46.2672 42.7953 47.6312 40.925 49.2203 39.6313C49.7969 39.1531 50.3172 38.6188 50.3875 38.4219C50.5984 37.8734 50.2891 37.0578 49.7547 36.7344C49.1781 36.3828 48.8828 36.3828 48.1094 36.7625ZM34.9047 40.4047C36.1422 40.8266 36.9156 41.8953 36.9156 43.2031C36.9156 44.4688 36.3672 45.2984 35.0031 46.0719C34.1453 46.5781 33.2875 47.4078 32.9219 48.125L32.6406 48.6875H30.1656H27.6906L27.7469 45.6219C27.7891 42.8375 27.8172 42.5281 28.0984 42.0078C28.4641 41.3047 29.0406 40.7563 29.6875 40.475C30.2922 40.2078 34.1594 40.1656 34.9047 40.4047ZM80.2703 40.5453C80.9875 40.8969 81.6203 41.6141 81.8453 42.3453C81.9437 42.6688 82 44.0187 82 45.7906V48.6875H79.5672H77.1203L76.8672 48.125C76.5719 47.4641 75.5172 46.4375 74.7297 46.0297C72.7328 45.0172 72.2547 42.8937 73.6469 41.2484C74.3641 40.3906 74.8844 40.25 77.4156 40.25C79.4125 40.25 79.7359 40.2781 80.2703 40.5453ZM60.6672 46.7891C61.1875 47.0563 61.8484 47.3094 62.1297 47.3656L62.6219 47.4641L62.5656 49.7984C62.5094 51.8516 62.4531 52.2453 62.1437 53.075C61.1875 55.6344 59.0641 57.4906 56.4766 58.0391C55.2391 58.2922 54.6203 58.2922 53.3828 58.0391C50.8234 57.5047 48.6719 55.6203 47.7297 53.1031C47.4062 52.2453 47.35 51.8656 47.2937 49.8547L47.2375 47.5766L51.9203 47.5344C56.6031 47.4781 56.6172 47.4781 57.7422 47.0984C58.3609 46.8875 59.0219 46.6203 59.2188 46.5078C59.6688 46.2547 59.5703 46.2266 60.6672 46.7891ZM59.6406 61.3156C59.6406 61.5969 58.5016 63.0031 57.9953 63.3547C56.9125 64.1 56.1391 64.3531 54.9297 64.3531C53.7203 64.3531 52.9469 64.1 51.8641 63.3547C51.3578 63.0031 50.2188 61.5969 50.2188 61.3156C50.2188 61.2594 52.3422 61.2031 54.9297 61.2031C57.5172 61.2031 59.6406 61.2594 59.6406 61.3156Z" fill="white"/>
<path d="M48.8125 38C50.8516 36.8327 56.1531 35.1985 61.0469 38" stroke="white" stroke-width="20"/>
</svg>
