<svg width="110" height="110" viewBox="0 0 110 110" fill="none" xmlns="http://www.w3.org/2000/svg">
<circle cx="55" cy="55" r="55" fill="#E20001"/>
<path d="M42.402 24.4183C40.6805 24.7426 39.1711 25.9402 38.3727 27.5993C37.9236 28.5598 37.9111 28.5972 37.9111 30.0692C37.9111 31.5412 37.9236 31.5786 38.3727 32.5392C40.4809 36.9427 46.6932 36.9427 48.8014 32.5392C49.2505 31.5786 49.2629 31.5412 49.2629 30.0692C49.2629 28.5972 49.2505 28.5598 48.8014 27.5993C47.6288 25.1543 45.1089 23.8943 42.402 24.4183ZM45.2836 26.8009C46.5435 27.4371 47.2545 28.6222 47.2545 30.0692C47.2545 31.5786 46.5061 32.7512 45.1464 33.3999C42.6889 34.56 39.9195 32.8011 39.9195 30.0692C39.9195 28.3727 40.905 27.0504 42.5891 26.5015C43.2003 26.3019 44.6099 26.4516 45.2836 26.8009Z" fill="white"/>
<path d="M83.6933 35.7576C83.5436 35.8325 79.3522 42.681 73.9507 51.6876L64.4701 67.4928L61.6383 67.5552C59.5676 67.6051 58.7817 67.655 58.6569 67.7797C58.5696 67.867 57.4843 69.838 56.2494 72.1458L53.9915 76.3497L49.7252 76.4121C46.1076 76.462 45.4339 76.4994 45.3342 76.6616C45.2219 76.8362 45.0472 77.2728 43.3008 81.7761L42.49 83.8344L36.7267 83.8968L30.9635 83.9592L30.7265 84.2586C30.4271 84.6328 30.4271 85.2815 30.7265 85.6557L30.9635 85.9551L37.1134 85.9925C41.4546 86.0175 43.3757 85.98 43.6127 85.8802C44.0243 85.7181 44.0119 85.7181 45.5213 81.7387L46.7438 78.5328H50.8229C54.5403 78.5328 54.9395 78.5078 55.1765 78.3082C55.3138 78.1959 56.4365 76.2125 57.659 73.9172L59.8919 69.7382L62.7112 69.6758C64.994 69.626 65.5678 69.5761 65.7175 69.4264C66.1292 69.0022 85.2526 36.9427 85.2526 36.6808C85.2526 36.0196 84.2921 35.4458 83.6933 35.7576Z" fill="white"/>
<path d="M38.0359 37.2047C36.9007 37.3419 35.4911 37.7535 32.859 38.7016C31.2498 39.2879 29.7029 39.8742 29.441 40.0114C28.7923 40.3482 27.6696 41.4086 27.2829 42.0697C26.7839 42.9305 24.5011 48.7311 24.4137 49.3548C24.2391 50.7894 25.1123 52.1616 26.5344 52.698C28.1187 53.2843 29.653 52.7853 30.626 51.3757C30.8381 51.0763 31.2747 50.0534 31.6115 49.0929C32.3849 46.9098 32.6095 46.4732 33.1958 45.9867C33.6573 45.6 35.5659 44.7767 35.6907 44.9014C35.7281 44.9389 35.5535 47.5585 35.304 50.7395C35.0545 53.9205 34.8549 56.7897 34.8549 57.114C34.8549 57.4508 34.9672 58.0995 35.1044 58.5486C35.2416 59.0101 35.7655 61.268 36.2895 63.5758L37.2251 67.7797L34.5805 73.1188C32.0357 78.2458 31.9359 78.5078 31.886 79.3186C31.8361 80.0671 31.8735 80.2542 32.2228 80.9528C32.6843 81.9009 33.2332 82.3624 34.2062 82.6119C35.5909 82.9737 37.1752 82.5371 37.8987 81.589C38.0609 81.3769 39.5328 78.5452 41.1545 75.2894C44.7347 68.129 44.5351 69.0022 43.6245 64.923L43.0132 62.2285L44.6474 62.5778C45.5331 62.7774 46.4811 62.977 46.7556 63.0144L47.2296 63.1018L47.1672 63.8627C47.1173 64.2868 46.9926 66.3202 46.8803 68.3785C46.6683 71.9337 46.6683 72.1707 46.8679 72.6947C47.1548 73.4431 47.8409 74.2166 48.4895 74.5284C49.2006 74.8652 50.4231 74.8777 51.1591 74.5534C51.7579 74.2789 52.5937 73.4556 52.7933 72.9566C52.8806 72.757 53.1051 69.9877 53.3047 66.7817C53.654 61.4177 53.6665 60.8938 53.4918 60.2451C53.2548 59.3345 52.9804 58.8854 52.2194 58.1743C51.4834 57.4882 51.4335 57.4633 48.8513 56.3905C47.7286 55.9164 46.7805 55.4674 46.7431 55.3676C46.6807 55.2179 47.1049 49.0804 47.2795 47.5086L47.3544 46.8724L49.2006 48.0949C51.8701 49.8538 53.6789 50.4651 56.2736 50.4651C57.546 50.4651 61.463 49.8912 61.987 49.6293C63.4714 48.8808 64.1326 47.1344 63.5463 45.5626C63.0847 44.3401 62.2988 43.654 61.0389 43.3671C60.6273 43.2673 60.0285 43.3047 58.6189 43.4918C56.3235 43.8037 55.363 43.7663 54.4399 43.3297C54.0657 43.155 52.9679 42.3442 52.0074 41.5458C49.6372 39.5499 48.9137 39.0259 47.8908 38.5394C46.5934 37.9407 45.82 37.7785 42.402 37.4292C39.3956 37.1298 38.8467 37.1049 38.0359 37.2047ZM42.0901 39.6746C43.7742 39.8368 45.4582 40.0738 45.8325 40.1861C47.0799 40.5478 48.1153 41.209 50.3108 43.0427C51.4959 44.0407 52.7309 45.0012 53.0303 45.1884C54.4149 45.9992 56.0865 46.1738 58.7311 45.7996C60.6273 45.5252 60.8518 45.5376 61.3009 45.9368C61.8622 46.4483 61.9121 46.9722 61.463 47.4712C61.1138 47.8579 61.0264 47.8829 59.2426 48.1698C54.889 48.8559 53.3421 48.4692 49.2505 45.6873C48.0779 44.889 46.9677 44.1779 46.7805 44.1031C46.3689 43.9534 45.6454 44.2153 45.5331 44.5646C45.4957 44.6894 45.2711 47.3839 45.0216 50.5524C44.6349 55.4549 44.5975 56.378 44.7347 56.6649C44.9094 57.0267 44.9218 57.0267 48.6392 58.586C50.735 59.4592 51.3088 59.8958 51.5458 60.8189C51.7204 61.5175 51.0593 71.9462 50.8098 72.2456C50.7225 72.3454 50.4979 72.52 50.2983 72.6198C49.999 72.7695 49.8992 72.782 49.5249 72.6198C49.2879 72.52 49.001 72.2955 48.8763 72.1084C48.6767 71.7965 48.6767 71.572 48.8887 67.4554C49.1881 61.7545 49.1881 61.8793 48.8887 61.5799C48.7016 61.3803 47.5165 61.0809 43.7118 60.2576C41.0048 59.6713 38.5848 59.1224 38.3478 59.0475C37.7615 58.8604 37.2251 58.4737 37.2251 58.2367C37.2251 58.1244 37.1377 57.9373 37.0255 57.8126C36.751 57.5132 36.7635 57.351 37.3623 49.6792C37.8363 43.4294 37.8613 42.9554 37.6741 42.6685C37.3249 42.1321 36.9756 42.1446 35.2541 42.7932C32.7966 43.7288 32.1729 44.0656 31.4369 44.864C30.6884 45.6749 30.4888 46.0491 29.6904 48.282C29.0168 50.1407 28.8796 50.3902 28.3307 50.7146C27.7818 51.0514 27.5823 51.0264 27.0583 50.5773C26.7215 50.278 26.6217 50.0908 26.6217 49.779C26.6217 49.2925 29.0044 43.4669 29.4534 42.8806C29.9524 42.2069 30.5262 41.92 33.6074 40.8098C36.9007 39.6247 37.4995 39.4501 38.722 39.3877C38.8966 39.3752 40.4061 39.5 42.0901 39.6746ZM40.7803 61.9292C41.0298 62.7774 42.0901 67.9044 42.0776 68.2662C42.0776 68.628 41.3666 70.1499 39.1212 74.6033C36.2396 80.3166 36.1522 80.4663 35.7156 80.616C34.7801 80.9154 33.9567 80.4039 33.9567 79.5057C33.9567 79.2064 34.7302 77.5348 36.7136 73.5554L39.4829 68.0292L38.6971 64.5738L37.8987 61.1183L39.3083 61.4302C40.2813 61.6422 40.7304 61.8044 40.7803 61.9292Z" fill="white"/>
<path d="M83.5802 47.4836L83.2559 47.7331V66.1206V84.508L83.5802 84.7575C84.0293 85.1068 84.5657 85.0943 84.9399 84.7076L85.2518 84.4082V66.1206V47.8329L84.9399 47.5335C84.5657 47.1468 84.0293 47.1344 83.5802 47.4836Z" fill="white"/>
<path d="M75.3217 61.5799C75.0972 61.8293 75.0847 62.2285 75.0473 72.8443C75.0223 80.1794 75.0473 83.9841 75.1346 84.2835C75.3591 85.0319 76.2822 85.269 76.8311 84.7076L77.143 84.4082V73.1936C77.143 62.0289 77.143 61.979 76.881 61.6422C76.5442 61.2181 75.6835 61.1807 75.3217 61.5799Z" fill="white"/>
<path d="M67.2757 72.1582L66.9763 72.3952V78.4579C66.9763 85.3313 66.9139 84.9571 67.9742 84.9571C69.0346 84.9571 68.9722 85.3313 68.9722 78.4579V72.3952L68.6728 72.1582C68.5106 72.0335 68.1988 71.9212 67.9742 71.9212C67.7497 71.9212 67.4378 72.0335 67.2757 72.1582Z" fill="white"/>
<path d="M59.4671 74.9151C59.3174 74.9775 59.1427 75.1396 59.0679 75.2769C58.9806 75.439 58.9307 77.0607 58.9307 79.9673V84.4082L59.2425 84.7076C59.6168 85.0943 60.1532 85.1068 60.6022 84.7575L60.9266 84.508V79.9049V75.3018L60.6022 75.0523C60.253 74.7779 59.9162 74.7405 59.4671 74.9151Z" fill="white"/>
<path d="M51.0718 80.9029C50.8472 81.1275 50.8223 81.3146 50.8223 82.824C50.8223 84.4831 50.8223 84.5081 51.1466 84.7576C51.3337 84.9073 51.6331 85.0195 51.8202 85.0195C52.0073 85.0195 52.3067 84.9073 52.4939 84.7576C52.8182 84.5081 52.8182 84.4831 52.8182 82.824C52.8182 81.3146 52.7932 81.1275 52.5687 80.9029C52.4065 80.7408 52.157 80.6535 51.8202 80.6535C51.4834 80.6535 51.2339 80.7408 51.0718 80.9029Z" fill="white"/>
</svg>
