<svg width="110" height="110" viewBox="0 0 110 110" fill="none" xmlns="http://www.w3.org/2000/svg">
<circle cx="55" cy="55" r="55" fill="#E20001"/>
<path d="M43.6189 28.5751C41.5144 29.0559 39.6071 30.0733 37.8862 31.605C36.4393 32.9132 35.4637 34.2325 34.6197 36.0549C33.5126 38.4252 33.1509 40.46 33.2166 43.9595L33.2495 46.2739L32.844 46.3969C32.3178 46.5646 31.9232 47.0901 31.7588 47.8392C31.6382 48.3535 31.5615 48.4653 31.0901 48.7672C30.1036 49.4157 29.4021 50.5449 29.2925 51.6965C29.2486 52.0095 29.1281 52.5574 28.9965 52.8928C28.6896 53.7314 28.6677 55.9563 28.9527 57.0296C29.5665 59.3328 31.3094 61.6584 33.7537 63.4249C35.0472 64.3641 37.371 65.5716 39.4208 66.3542L40.9992 66.958L40.1332 67.2934C39.6619 67.4834 37.9739 68.0872 36.3735 68.6239L33.4688 69.6077L32.8659 70.2227C32.3726 70.7146 32.1972 71.0053 31.9561 71.6762C31.123 74.0353 30.8271 76.6739 31.123 79.1112C31.5067 82.2641 32.5918 84.2207 34.4882 85.1711C35.2555 85.5624 35.3979 85.596 36.4722 85.6295C38.3246 85.6966 39.64 85.2829 42.457 83.7288C45.3399 82.1523 46.7868 81.202 54.7557 75.7012L56.4108 74.5607L60.3459 77.3C66.287 81.4368 68.545 82.8567 71.5923 84.3661C73.5763 85.35 74.6066 85.6519 75.9987 85.6519C77.6977 85.6519 78.6952 85.2046 79.8242 83.9636C81.2163 82.443 81.8521 79.9498 81.7206 76.5397C81.6329 74.2812 81.1067 71.9668 80.3833 70.7146C79.9339 69.932 79.3858 69.6189 77.2703 68.9257C75.1218 68.2214 72.0965 67.1257 71.9759 67.0027C71.9321 66.958 72.535 66.6784 73.3132 66.3766C78.2568 64.4982 81.6 61.9043 83.1784 58.7179C83.7703 57.5327 83.9567 56.7725 84.0115 55.2966C84.0663 54.145 84.0334 53.8432 83.8361 53.1723C83.7046 52.7363 83.5621 52.0766 83.5073 51.6965C83.4524 51.3275 83.299 50.7797 83.1674 50.5002C82.8715 49.8405 82.1152 48.9796 81.6 48.7001C81.2931 48.5324 81.1725 48.3759 81.0848 48.0293C81.019 47.7833 80.9533 47.4926 80.9204 47.3808C80.8217 47.0677 80.3504 46.5534 80.0106 46.4081L79.6817 46.2739L79.7475 44.2502C79.901 38.8277 78.5089 34.8921 75.352 31.9069C73.5324 30.1627 71.4936 29.0559 69.2356 28.5863C68.1395 28.3515 66.002 28.3515 64.9059 28.5863C61.4969 29.3018 58.636 31.5044 56.926 34.7132L56.4766 35.5406L56.071 34.7468C55.2818 33.1703 53.7582 31.4597 52.2674 30.4199C51.3248 29.7714 49.7244 29.0111 48.694 28.7316C47.5541 28.4186 44.6822 28.3291 43.6189 28.5751ZM48.6502 30.7441C49.2202 30.9454 49.9984 31.2808 50.3711 31.4932C52.103 32.4771 53.7143 34.1877 54.5693 35.9654C54.8105 36.4574 55.1503 36.9941 55.3147 37.1506C55.8956 37.7208 56.926 37.7879 57.6166 37.2847C57.7481 37.1953 58.066 36.7034 58.3071 36.2002C59.5129 33.7405 61.0365 32.1976 63.2945 31.1354C64.6428 30.4981 65.7828 30.2745 67.4489 30.3304C68.6985 30.3752 69.0054 30.4311 69.959 30.7553C72.7432 31.7168 75.1986 33.9418 76.5468 36.7369C77.5333 38.7606 77.917 40.6166 77.917 43.2999C77.917 44.2055 77.8622 45.4577 77.7964 46.0727C77.6539 47.3137 77.6868 47.2354 76.4372 48.6889C75.6041 49.6616 73.7078 51.3275 72.513 52.1437C72.0088 52.5015 71.5594 52.781 71.5375 52.781C71.5046 52.781 71.4498 51.7859 71.4169 50.5673C71.3621 48.1075 71.2634 47.6379 70.6277 46.8889C69.9481 46.0727 68.4135 45.4354 67.3831 45.536C66.3966 45.6366 65.9801 46.1174 65.5855 47.6044C64.8072 50.5896 63.5686 52.6804 61.1023 55.196C59.3594 56.9737 57.2877 58.539 54.3501 60.2943C51.3796 62.0609 47.4225 64.1516 44.9233 65.2809L43.6518 65.8511L42.1282 65.3144C37.382 63.6373 35.1349 62.3851 33.1399 60.3279C32.0219 59.1763 31.5067 58.416 31.0573 57.2868C30.5421 55.9786 30.5859 55.9004 31.3094 56.8843C32.5809 58.5949 35.1678 60.7192 35.9789 60.7192C36.8887 60.7192 37.2285 59.5341 36.4612 58.9974C33.8195 57.1191 32.7234 55.9227 31.5944 53.6755C31.0901 52.6692 31.0134 51.73 31.3861 51.171C31.5724 50.8803 31.6053 50.8691 31.6711 51.0592C32.1205 52.2891 32.3178 52.7027 32.7891 53.4407C33.392 54.391 35.3541 56.437 36.2091 57.0184C36.6475 57.3091 36.8339 57.365 37.1408 57.3203C37.6012 57.2532 37.9081 56.9066 37.9081 56.4706C37.9081 55.9563 37.8204 55.8445 36.801 55.0171C35.2555 53.7537 34.0168 52.1437 33.5893 50.8468C33.403 50.2877 33.3482 48.8007 33.5016 48.5548C33.5674 48.4541 33.8195 48.6777 34.3347 49.3039C36.3187 51.7189 39.2235 54.0332 41.8323 55.2855C42.6105 55.6656 42.9393 55.6209 43.312 55.1066C43.5203 54.827 43.5203 54.76 43.3888 53.9885C43.1915 52.8257 43.1147 49.8517 43.2682 49.0467C43.4326 48.1411 43.9259 47.6603 44.9014 47.4591C45.2083 47.392 45.2303 47.4143 45.307 47.8168C45.7345 50.1536 47.3787 53.3065 49.3627 55.5761C50.3492 56.7166 52.1798 58.4048 52.684 58.662C53.3636 58.9862 54.0213 58.5837 54.0213 57.8458C54.0213 57.4768 53.9445 57.365 53.3417 56.8172C51.9825 55.5985 50.2286 53.709 49.5381 52.7251C48.5735 51.3164 47.6198 49.2927 47.28 47.9175C46.9402 46.4864 46.7429 46.1174 46.151 45.7708C45.7345 45.5248 45.592 45.4913 45.0001 45.5472C44.6274 45.5695 44.0355 45.7149 43.6847 45.8491C41.7994 46.5758 41.2513 47.8392 41.328 51.2604L41.3609 52.8593L40.758 52.4791C39.1358 51.4282 36.2749 48.8343 35.5733 47.7609C35.2993 47.3584 35.1787 46.6429 35.0033 44.2838C34.8608 42.3943 35.3103 39.3308 35.9789 37.5978C37.2943 34.2213 40.3854 31.3814 43.6738 30.5317C44.3753 30.3528 44.8247 30.3193 46.0743 30.3416C47.4664 30.3752 47.7075 30.4087 48.6502 30.7441ZM68.2929 47.582C68.9068 47.8057 69.3562 48.2641 69.4877 48.8231C69.6412 49.5051 69.5973 52.3897 69.4219 53.586C69.2137 55.0059 69.3452 55.3749 70.0906 55.5314C70.3427 55.5761 70.6386 55.4755 71.395 55.073C74.0476 53.6531 76.4372 51.6965 78.4322 49.2927C78.8268 48.8119 79.1994 48.4541 79.2433 48.4877C79.4406 48.6107 79.3529 50.3995 79.1227 51.0368C78.6404 52.345 77.3141 53.9885 75.7795 55.1848C74.9026 55.878 74.7272 56.2246 74.9574 56.7948C75.078 57.1191 75.4616 57.365 75.8234 57.365C76.1632 57.365 77.0291 56.7166 78.0924 55.6656C79.6489 54.1339 80.5367 52.8034 80.9861 51.3499L81.1615 50.7685L81.4136 51.2269C81.7863 51.9089 81.6986 52.6468 81.0958 53.8432C80.1202 55.7774 78.7939 57.2756 76.8756 58.5949C76.0097 59.1875 75.7795 59.5229 75.9001 60.0036C75.9878 60.3502 76.4482 60.7192 76.7989 60.7192C77.6649 60.7192 80.6573 58.17 81.7315 56.5153C82.1371 55.9004 82.17 56.0457 81.8631 56.9849C81.1286 59.1539 78.9912 61.3789 76.0864 63.0224C74.8588 63.7156 72.6226 64.6324 69.4219 65.7505C65.8047 67.0139 64.2811 67.6623 61.6394 69.0823C59.5787 70.1891 57.1891 71.6873 54.2514 73.711C45.5481 79.7262 44.0355 80.71 41.2623 82.1859C39.2892 83.248 38.1931 83.6505 37.075 83.7176C36.0666 83.7847 35.5733 83.6617 34.8608 83.1698C33.3043 82.0853 32.5261 78.664 33.0413 75.1645C33.2386 73.8005 33.7537 72.0675 34.0826 71.6314C34.258 71.4078 34.6416 71.2401 35.7487 70.8823C42.7092 68.6462 49.1983 65.661 55.7751 61.6584C61.2229 58.3489 64.292 55.319 66.2322 51.3275C66.8022 50.1536 67.0324 49.4827 67.5695 47.5485C67.6133 47.3696 67.69 47.3808 68.2929 47.582ZM70.0906 68.3332C71.6032 68.9705 74.3436 69.9767 76.5578 70.7146C77.7854 71.1283 78.5089 71.4302 78.6623 71.5979C78.9254 71.8774 79.4516 73.465 79.6817 74.639C79.7804 75.1309 79.8352 76.126 79.8242 77.3223C79.8242 78.8876 79.7804 79.3907 79.5831 80.1957C79.0021 82.5772 77.8622 83.7512 76.1193 83.7512C74.9793 83.7512 73.8174 83.3822 71.954 82.4095C69.1698 80.9672 65.8814 78.8429 59.0525 74.0576L58.0989 73.398L59.8746 72.3246C62.8561 70.5022 64.6428 69.6077 67.5037 68.4785C68.3148 68.1543 68.9835 67.8859 68.9944 67.8859C68.9944 67.8748 69.4877 68.076 70.0906 68.3332Z" fill="white"/>
<path d="M67.6689 33.0474C67.351 33.3604 67.3072 33.9306 67.5593 34.2996C67.6579 34.4449 67.9429 34.5903 68.2937 34.6686C70.7929 35.2723 73.0071 37.2401 73.7634 39.5545C74.0594 40.4713 74.2786 40.7061 74.8486 40.7061C75.8789 40.7061 75.9886 39.8228 75.1993 38.0898C74.2347 35.999 72.7111 34.4673 70.6394 33.4946C69.8064 33.1033 68.6993 32.7679 68.2279 32.7679C68.0635 32.7679 67.8114 32.8908 67.6689 33.0474Z" fill="white"/>
<path d="M74.4205 42.7073C74.1575 42.9756 73.8396 44.4179 73.9711 44.7757C74.1903 45.3794 74.9248 45.5807 75.429 45.1782C75.9332 44.7757 76.1305 43.1321 75.7249 42.7184C75.4399 42.4278 74.7055 42.4166 74.4205 42.7073Z" fill="white"/>
</svg>
