<svg width="110" height="110" viewBox="0 0 110 110" fill="none" xmlns="http://www.w3.org/2000/svg">
<circle cx="55" cy="55" r="55" fill="#E20001"/>
<path d="M30.1851 28.0739C28.7197 28.6316 27.6699 29.7136 27.1997 31.1525C26.7951 32.3572 27.0247 34.0972 27.7136 35.2127C28.6322 36.7073 30.5132 37.622 32.2082 37.4101L32.7659 37.332L33.9907 39.9532C34.6687 41.3922 35.2155 42.6191 35.2155 42.6861C35.2155 42.7418 34.9311 42.9761 34.5921 43.2103C33.7829 43.7569 32.3175 45.2515 31.7489 46.1104C30.4257 48.107 29.8242 50.126 29.8242 52.5799C29.8133 55.045 30.3819 56.997 31.6723 58.9936C32.1972 59.819 33.3127 61.0349 34.2094 61.7822L34.6796 62.1726L33.8923 63.6226C33.4548 64.4146 33.094 65.0839 33.083 65.1062C33.0611 65.1285 32.755 65.0839 32.3941 65.0281C30.5788 64.7269 28.6869 65.597 27.7027 67.1809C26.8169 68.5975 26.7732 70.661 27.5934 72.1557C28.0855 73.0369 29.2446 74.0184 30.1085 74.2973C33.0502 75.212 35.8825 73.4161 36.3309 70.371C36.5277 68.999 36.1231 67.6493 35.2045 66.6343L34.778 66.1658L35.6091 64.6377C36.2762 63.4219 36.484 63.1207 36.6261 63.1876C38.3321 63.9015 40.5411 64.2361 42.2033 64.0242C44.0733 63.7788 45.5933 63.2322 47.0149 62.2953C47.6711 61.8603 47.846 61.7933 47.9554 61.916C48.021 61.9941 48.8302 62.8976 49.7379 63.9238L51.4001 65.7866L51.0939 66.1547C49.3005 68.2517 48.3491 71.1183 48.4694 74.0408L48.5131 75.2343L46.4354 75.7362L44.3467 76.2381L44.1608 75.8812C43.8436 75.2789 42.9469 74.4312 42.258 74.0742C40.3552 73.0926 38.1681 73.4496 36.7136 74.9777C34.8983 76.8739 34.953 79.9302 36.823 81.7595C37.8619 82.7634 38.8023 83.1315 40.2786 83.0646C41.1425 83.0311 41.3941 82.9753 42.0283 82.6742C43.6358 81.8934 44.4888 80.6329 44.7841 78.6029L44.8497 78.2013L46.5666 77.7886C47.507 77.5655 48.4475 77.3313 48.6553 77.2867C48.9724 77.1974 49.0271 77.2197 49.0708 77.4093C49.1911 77.8444 49.9785 79.406 50.4159 80.0641C52.0891 82.5961 54.8776 84.3808 57.8849 84.8716C59.219 85.0947 61.5046 84.9608 62.7184 84.5927C64.6868 84.0127 66.3381 82.9976 67.7051 81.5587C69.8594 79.2944 70.8764 76.7066 70.8764 73.55C70.8764 71.676 70.6577 70.6722 69.6953 68.2963C69.6625 68.1959 74.7804 64.6823 74.9663 64.6823C74.9991 64.6823 75.2725 64.8496 75.5677 65.0616C78.2469 66.9355 81.7573 65.7866 82.7961 62.6968C83.0586 61.9049 83.0695 60.4771 82.818 59.7075C82.3369 58.2574 81.1996 57.0974 79.7889 56.6178C78.6078 56.205 76.9019 56.4393 75.8083 57.142C74.2883 58.1236 73.4025 60.0979 73.6977 61.8491C73.7634 62.2061 73.829 62.5965 73.8399 62.7192C73.8618 62.8753 73.2603 63.3326 71.1935 64.6935L68.5252 66.4781L67.9456 65.8089C67.2786 65.0392 65.8569 63.9127 65.0258 63.4888C64.7196 63.3326 64.4572 63.1988 64.4463 63.1876C64.4134 63.1653 68.8861 50.4941 68.9408 50.4271C68.9626 50.4048 69.4219 50.4717 69.9468 50.5833C71.2263 50.8287 73.2931 50.7506 74.5398 50.416C78.5203 49.3563 81.4073 46.512 82.6431 42.4072C82.9164 41.4925 82.9383 41.2918 82.9383 39.3063C82.9383 37.3097 82.9164 37.1312 82.6321 36.1831C81.462 32.2345 78.7281 29.4459 74.8569 28.2524C73.9383 27.9624 73.7415 27.9401 71.795 27.9401C69.8375 27.9401 69.6625 27.9512 68.733 28.2412C66.9286 28.8101 65.343 29.7471 63.987 31.041C63.3964 31.6098 62.2919 33.0934 61.942 33.8072C61.7998 34.0972 61.6358 34.3426 61.5921 34.3426C61.5483 34.3426 60.8922 34.1084 60.1376 33.8295L58.7598 33.3164L58.7488 32.5691C58.7488 31.2194 58.2786 30.1263 57.3381 29.2005C56.3649 28.2524 55.4353 27.8731 54.0793 27.8731C50.5799 27.8731 48.36 31.476 49.8473 34.7219C50.7002 36.5735 52.953 37.7559 54.8776 37.3655C56.0368 37.1312 57.3163 36.3281 57.8849 35.4692L58.0599 35.2015L59.4596 35.7369C60.2251 36.0269 60.8813 36.2835 60.9031 36.3058C60.925 36.3281 60.8594 36.7408 60.761 37.2428C60.4548 38.782 60.5751 40.9683 61.0344 42.6861C61.0672 42.7753 59.3831 43.5672 56.0587 44.995C53.3029 46.1885 51.0174 47.1701 50.9736 47.1701C50.9408 47.1701 50.7002 46.8243 50.4487 46.4116C49.5083 44.85 47.7695 43.2549 46.0964 42.4072C43.6358 41.1468 40.8691 40.8344 38.2227 41.526C37.6322 41.6822 37.1073 41.7826 37.0636 41.7268C37.0198 41.6822 36.4512 40.4887 35.7841 39.0609L34.5812 36.4843L35.0952 35.9265C37.4572 33.3722 36.4293 29.234 33.1596 28.0851C32.3831 27.8174 30.885 27.8062 30.1851 28.0739ZM32.6456 30.0371C33.2799 30.3048 33.7392 30.7398 34.0672 31.3533C35.0405 33.1826 33.7282 35.3911 31.6614 35.3911C29.8242 35.3911 28.5885 33.6288 29.1025 31.7325C29.2556 31.186 30.2288 30.1598 30.7428 30.0148C31.3005 29.8475 32.2191 29.8586 32.6456 30.0371ZM55.1729 30.0929C57.1522 31.0298 57.3381 33.863 55.49 34.9673C54.4511 35.5919 53.4123 35.5473 52.4827 34.8446C50.8205 33.6176 51.1048 30.9629 52.9858 30.0929C53.5654 29.814 54.5933 29.8251 55.1729 30.0929ZM73.6868 30.0594C77.2627 30.8067 80.1497 33.7738 80.8715 37.4547C81.1667 38.9271 81.0574 40.7787 80.609 42.1506C80.281 43.1545 79.7342 44.2142 79.1437 45.0285L78.8812 45.3854L78.5969 44.8054C78.0392 43.6676 76.9019 42.4853 75.8192 41.9499L75.2506 41.6599L75.524 41.2918C77.3612 38.8378 76.4973 35.2908 73.7415 33.9857C72.8776 33.5618 71.5434 33.4391 70.6686 33.6734C68.2956 34.3315 66.8302 36.5735 67.1692 39.0609C67.2676 39.8194 67.6613 40.7787 68.0878 41.2806L68.3612 41.6264L67.7269 41.9722C66.8849 42.4183 65.4305 43.913 65.0805 44.6827C64.9274 45.0061 64.7743 45.2738 64.7196 45.2738C64.5775 45.2738 63.976 44.3815 63.5277 43.4669C62.9262 42.251 62.6528 41.1914 62.5872 39.7413C62.3576 35.1234 65.4414 31.041 69.9031 30.0482C70.8545 29.8363 72.6698 29.8475 73.6868 30.0594ZM72.8885 35.8373C73.9274 36.3393 74.507 37.2428 74.507 38.3582C74.507 39.5071 73.818 40.5221 72.7682 40.9237C72.0574 41.1914 71.62 41.2025 70.9639 40.9794C69.5641 40.4887 68.8095 38.9717 69.2251 37.4547C69.3782 36.8858 70.0562 36.1385 70.6905 35.8373C71.4231 35.4915 72.1668 35.4915 72.8885 35.8373ZM42.6626 43.333C46.2057 44.0134 49.0271 46.7239 49.9894 50.349C50.1753 51.0406 50.23 51.5537 50.23 52.6357C50.23 54.7327 49.8035 56.127 48.6443 57.9005L48.0757 58.7594L47.7476 58.0678C47.3211 57.1866 45.8995 55.7031 45.0903 55.3127C44.7731 55.1565 44.5216 54.9892 44.5107 54.9335C44.5107 54.8665 44.6091 54.7215 44.7185 54.5988C45.1012 54.1638 45.484 53.2492 45.6152 52.4572C45.9323 50.5721 45.1231 48.6759 43.5484 47.6497C41.1425 46.077 37.9275 47.0139 36.7355 49.6575C36.0028 51.2749 36.2106 53.1934 37.2604 54.61L37.5229 54.9669L37.1073 55.1789C35.9044 55.8146 34.7999 56.9301 34.1984 58.1347L33.936 58.6813L33.5861 58.2463C33.083 57.6328 32.3066 55.9597 32.0332 54.9223C31.6942 53.6619 31.6942 51.6095 32.0332 50.349C33.3236 45.4746 37.9493 42.4183 42.6626 43.333ZM73.6212 43.2772C75.2069 43.6119 76.7816 45.1288 77.1425 46.6458C77.2081 46.9247 77.1534 46.9804 76.6066 47.3374C73.7962 49.1778 69.9906 49.1778 67.0271 47.3597C66.349 46.9358 66.3272 46.8243 66.7646 45.865C67.2895 44.6938 68.5799 43.623 69.8266 43.3107C70.5264 43.1322 72.8666 43.1211 73.6212 43.2772ZM62.2591 45.3519C63.2105 46.9135 64.7087 48.3859 66.2397 49.2448C66.6552 49.479 66.9942 49.6686 67.0161 49.6909C67.0599 49.7244 62.6856 62.128 62.5544 62.3399C62.4888 62.4514 62.3576 62.4514 61.8873 62.3288C61.5046 62.2284 60.6844 62.1726 59.6018 62.1726C58.1911 62.1726 57.7427 62.2172 56.9226 62.4291C55.8618 62.708 54.0246 63.5669 53.3248 64.1023L52.8983 64.4258L51.1048 62.418C49.5192 60.6556 49.3333 60.3879 49.4536 60.2206C49.5301 60.1202 49.8254 59.7075 50.1097 59.3282C50.7002 58.5251 51.3892 57.1532 51.7282 56.1158C52.3078 54.3088 52.4062 51.8995 51.9578 50.0144C51.8375 49.5236 51.761 49.1109 51.7829 49.0886C51.8266 49.044 61.7124 44.7384 61.7998 44.7273C61.8326 44.7161 62.0404 45.0061 62.2591 45.3519ZM42.1595 49.1667C42.7719 49.4455 43.3625 50.1594 43.5921 50.9068C43.7561 51.4422 43.7671 51.6206 43.6577 52.1672C43.1219 54.8108 39.6444 55.2458 38.5399 52.803C37.4791 50.4829 39.8303 48.1293 42.1595 49.1667ZM43.5046 56.8297C44.5654 57.2201 45.4621 58.0567 45.987 59.1275C46.1948 59.5625 46.3697 60.0087 46.3697 60.1202C46.3697 60.3991 45.0465 61.1799 43.9092 61.5703C41.2519 62.4849 38.2337 62.0834 36.0138 60.5441L35.5545 60.2206L35.7185 59.7298C36.2653 58.1013 37.7634 56.8185 39.4366 56.5397C39.7975 56.4839 40.6832 56.4616 41.405 56.4839C42.4876 56.5285 42.8704 56.5843 43.5046 56.8297ZM79.2202 58.5586C79.7889 58.7148 80.7621 59.7075 80.9152 60.2875C81.298 61.6818 80.784 62.9645 79.592 63.6226C77.7986 64.6154 75.6333 63.2769 75.6333 61.1687C75.6333 59.2948 77.3612 58.0344 79.2202 58.5586ZM62.3357 64.515C66.2944 65.7754 68.897 69.3783 68.897 73.5946C68.897 75.5243 68.394 77.1974 67.3442 78.8036C67.0489 79.261 66.7865 79.6291 66.7646 79.6291C66.7427 79.6291 66.5568 79.3167 66.3709 78.9375C65.9116 78.0563 64.5775 76.6732 63.7464 76.227L63.123 75.9035L63.3855 75.5577C64.4244 74.1523 64.6322 72.1668 63.8885 70.5606C62.1935 66.902 57.1194 66.902 55.4244 70.5606C54.6808 72.1668 54.8886 74.1523 55.9274 75.5577L56.1899 75.9035L55.5666 76.227C54.7464 76.662 53.281 78.1678 52.942 78.9263C52.7889 79.2498 52.6358 79.5175 52.5812 79.5175C52.439 79.5175 51.761 78.5025 51.3564 77.6547C50.6784 76.2493 50.4706 75.3347 50.4815 73.55C50.4815 72.4122 50.5362 71.7876 50.6674 71.2633C50.9408 70.226 51.8485 68.4301 52.5265 67.5824C53.8934 65.8758 55.9602 64.66 58.2895 64.1915C58.4426 64.1692 59.2081 64.1581 59.9845 64.1804C61.1437 64.2138 61.5811 64.2808 62.3357 64.515ZM32.8971 67.3259C33.9469 67.8278 34.6031 69.144 34.3625 70.2371C34.0563 71.598 32.9737 72.5015 31.6505 72.5015C30.1632 72.5015 28.9822 71.2968 28.9822 69.7575C28.9822 68.3855 29.8789 67.2924 31.2021 67.0359C31.8036 66.9243 32.1972 66.9912 32.8971 67.3259ZM60.8813 70.1256C61.3952 70.3933 61.9748 71.0291 62.1935 71.5868C62.4013 72.0888 62.4013 73.1149 62.1935 73.6169C61.603 75.0781 59.9189 75.7697 58.5629 75.1227C57.5568 74.6542 56.9554 73.7061 56.9554 72.6019C56.9554 71.3526 57.7099 70.3264 58.9457 69.9137C59.3831 69.7687 60.4001 69.8802 60.8813 70.1256ZM41.3066 75.8589C42.5204 76.4835 43.1109 78.0675 42.597 79.3837C42.3673 79.9637 41.4706 80.8114 40.9238 80.9676C39.9287 81.2464 39.0101 81.0345 38.2993 80.3764C37.665 79.7852 37.3807 79.1271 37.3807 78.2794C37.3807 76.2381 39.4913 74.9331 41.3066 75.8589ZM61.4718 77.5544C61.8764 77.6436 62.4122 77.8221 62.6747 77.9671C63.3527 78.3128 64.3697 79.406 64.6868 80.0975C65.168 81.1795 65.168 81.1907 64.3806 81.6591C62.7184 82.663 61.2968 83.0311 59.2847 82.953C58.1036 82.9084 57.7537 82.8415 56.846 82.5292C56.2555 82.3284 55.4463 81.9603 55.0417 81.7038C54.1996 81.1683 54.1777 81.1014 54.6261 80.0975C54.9432 79.406 55.9602 78.3128 56.6383 77.9559C56.9007 77.8221 57.4147 77.6436 57.7865 77.5655C58.6723 77.3647 60.5751 77.3647 61.4718 77.5544Z" fill="white"/>
</svg>
